<?xml version="1.0" encoding="UTF-8"?>
<svg width="76px" height="60px" viewBox="0 0 76 60" version="1.1" xmlns="http://www.w3.org/2000/svg" xmlns:xlink="http://www.w3.org/1999/xlink">
    <!-- Generator: Sketch 52.6 (67491) - http://www.bohemiancoding.com/sketch -->
    <title>Bootstrap_logo</title>
    <desc>Created with Sketch.</desc>
    <defs>
        <linearGradient x1="14.8591797%" y1="2.64656863%" x2="102.242188%" y2="89.692402%" id="linearGradient-1">
            <stop stop-color="#9013FE" offset="0%"></stop>
            <stop stop-color="#6610F2" offset="100%"></stop>
        </linearGradient>
        <linearGradient x1="9.45878788%" y1="6.58202765%" x2="70.0684848%" y2="84.5230415%" id="linearGradient-2">
            <stop stop-color="#FFFFFF" offset="0%"></stop>
            <stop stop-color="#F1E5FC" offset="100%"></stop>
        </linearGradient>
    </defs>
    <g id="Page-1" stroke="none" stroke-width="1" fill="none" fill-rule="evenodd">
        <g id="Bootstrap_logo">
            <path d="M8.30602941,7.84117647 C8.16397059,3.76176471 11.3423529,0 15.6385294,0 L59.6610294,0 C63.9572059,0 67.1355882,3.76176471 66.9935294,7.84117647 C66.8570588,11.7598529 67.0342647,16.8360294 68.3117647,20.975 C69.5933824,25.1267647 71.7545588,27.7510294 75.2941176,28.0882353 L75.2941176,31.9117647 C71.7545588,32.2489706 69.5933824,34.8732353 68.3117647,39.025 C67.0342647,43.1639706 66.8570588,48.2401471 66.9935294,52.1589706 C67.1355882,56.2382353 63.9572059,60 59.6610294,60 L15.6385294,60 C11.3423529,60 8.16397059,56.2382353 8.30617647,52.1589706 C8.4425,48.2401471 8.26529412,43.1639706 6.98764706,39.025 C5.70617647,34.8732353 3.53970588,32.2489706 0,31.9117647 L0,28.0882353 C3.53955882,27.7510294 5.70617647,25.1267647 6.98764706,20.975 C8.26529412,16.8360294 8.4425,11.7598529 8.30602941,7.84117647 Z" id="Path" fill="url(#linearGradient-1)"></path>
            <path d="M39.2798529,45.9495588 C46.2352941,45.9495588 50.4266176,42.5439706 50.4266176,36.9267647 C50.4266176,32.6807353 47.4360294,29.6067647 42.9954412,29.1201471 L42.9954412,28.9432353 C46.2579412,28.4125 48.8180882,25.3827941 48.8180882,21.9992647 C48.8180882,17.1782353 45.0119118,14.0377941 39.2119118,14.0377941 L26.1619118,14.0377941 L26.1619118,45.9495588 L39.2798529,45.9495588 Z M31.2369118,18.0848529 L37.9885294,18.0848529 C41.6588235,18.0848529 43.7430882,19.7213235 43.7430882,22.6847059 C43.7430882,25.8472059 41.3189706,27.6163235 36.9236765,27.6163235 L31.2369118,27.6163235 L31.2369118,18.0848529 Z M31.2369118,41.9026471 L31.2369118,31.3980882 L37.9430882,31.3980882 C42.7461765,31.3980882 45.2383824,33.1672059 45.2383824,36.6172059 C45.2383824,40.0670588 42.8142647,41.9026471 38.2376471,41.9026471 L31.2369118,41.9026471 Z" id="Shape" stroke="#FFFFFF" fill="url(#linearGradient-2)" fill-rule="nonzero"></path>
        </g>
    </g>
</svg>