<?xml version="1.0" encoding="UTF-8"?>
<svg width="60px" height="60px" viewBox="0 0 60 60" version="1.1" xmlns="http://www.w3.org/2000/svg" xmlns:xlink="http://www.w3.org/1999/xlink">
    <!-- Generator: Sketch 52.6 (67491) - http://www.bohemiancoding.com/sketch -->
    <title>logo-js</title>
    <desc>Created with Sketch.</desc>
    <g id="Page-1" stroke="none" stroke-width="1" fill="none" fill-rule="evenodd">
        <g id="logo-js">
            <rect id="Rectangle" fill="#F7DF1E" x="0" y="0" width="60" height="60"></rect>
            <path d="M40.3047619,46.8752381 C41.5133333,48.8485714 43.0857143,50.2990476 45.8666667,50.2990476 C48.2028571,50.2990476 49.6952381,49.1314286 49.6952381,47.5180952 C49.6952381,45.5847619 48.1619048,44.9 45.5904762,43.7752381 L44.1809524,43.1704762 C40.112381,41.4371429 37.4095238,39.2657143 37.4095238,34.6752381 C37.4095238,30.4466667 40.6314286,27.227619 45.6666667,27.227619 C49.2514286,27.227619 51.8285714,28.4752381 53.6857143,31.7419048 L49.2952381,34.5609524 C48.3285714,32.827619 47.2857143,32.1447619 45.6666667,32.1447619 C44.0152381,32.1447619 42.9685714,33.192381 42.9685714,34.5609524 C42.9685714,36.252381 44.0161905,36.9371429 46.4352381,37.9847619 L47.8447619,38.5885714 C52.6352381,40.6428571 55.34,42.7371429 55.34,47.4457143 C55.34,52.5219048 51.352381,55.3028571 45.9971429,55.3028571 C40.7609524,55.3028571 37.3780952,52.807619 35.7228571,49.5371429 L40.3047619,46.8752381 Z M20.387619,47.3638095 C21.2733333,48.9352381 22.0790476,50.2638095 24.0161905,50.2638095 C25.8685714,50.2638095 27.0371429,49.5390476 27.0371429,46.7209524 L27.0371429,27.5495238 L32.6752381,27.5495238 L32.6752381,46.7971429 C32.6752381,52.6352381 29.252381,55.292381 24.2561905,55.292381 C19.7419048,55.292381 17.127619,52.9561905 15.7980952,50.142381 L20.387619,47.3638095 Z" id="Shape" fill="#000000" fill-rule="nonzero"></path>
        </g>
    </g>
</svg>